<svg width="1440" height="817" viewBox="0 0 1440 817" fill="none" xmlns="http://www.w3.org/2000/svg">
<path fill-rule="evenodd" clip-rule="evenodd" d="M1440 35H0V713.986L48 697.011L48.0005 697.011C96.0007 680.036 192 646.087 288 629.112C384 612.138 480 612.138 576 646.087C609.87 658.065 643.74 674.268 677.61 690.472C739.74 720.195 801.87 749.919 864 753.558C938.722 758.265 1013.44 724.6 1088.17 690.935C1109.44 681.348 1130.72 671.762 1152 663.062C1248 623.808 1344 600.468 1392 589.54L1440 578.188V35Z" fill="#E1F6FF"/>
<path fill-rule="evenodd" clip-rule="evenodd" d="M1440 -0.10498H0V678.881L48 661.906L48.0005 661.906C96.0007 644.931 192 610.982 288 594.007C384 577.033 480 577.033 576 610.982C609.87 622.96 643.74 639.163 677.61 655.367C739.74 685.09 801.87 714.814 864 718.453C938.722 723.16 1013.44 689.495 1088.17 655.83C1109.44 646.243 1130.72 636.657 1152 627.957C1248 588.703 1344 565.363 1392 554.435L1440 543.083V-0.10498Z" fill="url(#paint0_linear_62_20)"/>
<circle cx="109.5" cy="370.395" r="370.5" fill="#E1F6FF" fill-opacity="0.1"/>
<circle cx="159" cy="282.895" r="482" fill="#E1F6FF" fill-opacity="0.1"/>
<ellipse cx="287.966" cy="251.969" rx="509" ry="523.967" transform="rotate(4.83066 287.966 251.969)" fill="#E1F6FF" fill-opacity="0.1"/>
<defs>
<linearGradient id="paint0_linear_62_20" x1="1440" y1="376.895" x2="308.019" y2="357.767" gradientUnits="userSpaceOnUse">
<stop stop-color="#2767B1"/>
<stop offset="0.635417" stop-color="#19A6DF"/>
<stop offset="1" stop-color="#19A6DF" stop-opacity="0.81"/>
</linearGradient>
</defs>
</svg>
