<svg width="1440" height="439" viewBox="0 0 1440 439" fill="none" xmlns="http://www.w3.org/2000/svg">
<path d="M-2 369.9L78 342.543C158 314.672 318 260.728 478 253.407C638 246.6 798 287.7 958 267.15C1118 246.6 1278 164.4 1358 123.3L1438 82.2V411H1358C1278 411 1118 411 958 411C798 411 638 411 478 411C318 411 158 411 78 411H-2V369.9Z" fill="#E1F6FF"/>
<path d="M0 407L80 385.7C160 364 320 322 480 316.3C640 311 800 343 960 327C1120 311 1280 247 1360 215L1440 183V439H1360C1280 439 1120 439 960 439C800 439 640 439 480 439C320 439 160 439 80 439H0V407Z" fill="#0099FF"/>
</svg>
