<svg width="34" height="30" viewBox="0 0 34 30" fill="none" xmlns="http://www.w3.org/2000/svg">
<path d="M9.71951 0.666748C4.35979 0.666748 0 4.50691 0 9.22469V21.4469C0 26.1635 4.36382 30.0001 9.72493 30.0001H23.6138C28.9735 30.0001 33.3333 26.1599 33.3333 21.4421V9.21992C33.3333 4.50336 28.9695 0.666748 23.6084 0.666748H9.71951ZM26.3889 5.55564C27.1556 5.55564 27.7778 6.10319 27.7778 6.77786C27.7778 7.45253 27.1556 8.00008 26.3889 8.00008C25.6222 8.00008 25 7.45253 25 6.77786C25 6.10319 25.6222 5.55564 26.3889 5.55564ZM16.6667 8.00008C21.2625 8.00008 25 11.2891 25 15.3334C25 19.3777 21.2625 22.6667 16.6667 22.6667C12.0708 22.6667 8.33333 19.3777 8.33333 15.3334C8.33333 11.2891 12.0708 8.00008 16.6667 8.00008ZM16.6667 10.4445C15.1932 10.4445 13.7802 10.9596 12.7383 11.8764C11.6964 12.7933 11.1111 14.0368 11.1111 15.3334C11.1111 16.63 11.6964 17.8735 12.7383 18.7904C13.7802 19.7072 15.1932 20.2223 16.6667 20.2223C18.1401 20.2223 19.5532 19.7072 20.595 18.7904C21.6369 17.8735 22.2222 16.63 22.2222 15.3334C22.2222 14.0368 21.6369 12.7933 20.595 11.8764C19.5532 10.9596 18.1401 10.4445 16.6667 10.4445Z" fill="black"/>
</svg>
