<svg width="10" height="15" viewBox="0 0 10 15" fill="none" xmlns="http://www.w3.org/2000/svg">
<g clip-path="url(#clip0_89_538)">
<mask id="path-1-inside-1_89_538" fill="white">
<path fill-rule="evenodd" clip-rule="evenodd" d="M5.32244 14.8335C5.27381 14.8712 5.21542 14.8925 5.15502 14.8945C5.09462 14.8966 5.03506 14.8793 4.98423 14.8449C3.87157 14.1064 2.88325 13.1789 2.05957 12.1003C0.991818 10.6932 0.325152 9.13575 0.0899214 7.63526C-0.144225 6.11199 0.0747453 4.64796 0.795612 3.45737C1.08885 2.97339 1.45708 2.54439 1.88504 2.18816C2.90185 1.33595 4.06391 0.885913 5.22054 0.895028C6.33599 0.904143 7.43518 1.34164 8.38586 2.25196C8.7151 2.56806 8.99948 2.93217 9.2303 3.33318C10.0054 4.67416 10.1723 6.38656 9.83193 8.11834C9.54621 9.49761 8.99983 10.8025 8.2252 11.9557C7.45057 13.1088 6.46346 14.0866 5.32244 14.8312V14.8335ZM4.99724 3.60206C5.49063 3.60071 5.9733 3.75324 6.38417 4.04036C6.79503 4.32747 7.11561 4.73625 7.30531 5.21496C7.49501 5.69366 7.54532 6.22076 7.44985 6.72952C7.35438 7.23829 7.11744 7.70584 6.76902 8.073C6.4206 8.44016 5.97636 8.69042 5.49254 8.79208C5.00873 8.89375 4.50709 8.84225 4.05114 8.64412C3.59518 8.44599 3.20541 8.11013 2.93116 7.67905C2.65691 7.24797 2.51052 6.74107 2.51052 6.2225C2.51052 5.52811 2.77275 4.86211 3.23962 4.37078C3.70648 3.87945 4.33981 3.60296 5.00049 3.60206H4.99724Z"/>
</mask>
<path fill-rule="evenodd" clip-rule="evenodd" d="M5.32244 14.8335C5.27381 14.8712 5.21542 14.8925 5.15502 14.8945C5.09462 14.8966 5.03506 14.8793 4.98423 14.8449C3.87157 14.1064 2.88325 13.1789 2.05957 12.1003C0.991818 10.6932 0.325152 9.13575 0.0899214 7.63526C-0.144225 6.11199 0.0747453 4.64796 0.795612 3.45737C1.08885 2.97339 1.45708 2.54439 1.88504 2.18816C2.90185 1.33595 4.06391 0.885913 5.22054 0.895028C6.33599 0.904143 7.43518 1.34164 8.38586 2.25196C8.7151 2.56806 8.99948 2.93217 9.2303 3.33318C10.0054 4.67416 10.1723 6.38656 9.83193 8.11834C9.54621 9.49761 8.99983 10.8025 8.2252 11.9557C7.45057 13.1088 6.46346 14.0866 5.32244 14.8312V14.8335ZM4.99724 3.60206C5.49063 3.60071 5.9733 3.75324 6.38417 4.04036C6.79503 4.32747 7.11561 4.73625 7.30531 5.21496C7.49501 5.69366 7.54532 6.22076 7.44985 6.72952C7.35438 7.23829 7.11744 7.70584 6.76902 8.073C6.4206 8.44016 5.97636 8.69042 5.49254 8.79208C5.00873 8.89375 4.50709 8.84225 4.05114 8.64412C3.59518 8.44599 3.20541 8.11013 2.93116 7.67905C2.65691 7.24797 2.51052 6.74107 2.51052 6.2225C2.51052 5.52811 2.77275 4.86211 3.23962 4.37078C3.70648 3.87945 4.33981 3.60296 5.00049 3.60206H4.99724Z" fill="#323232"/>
<path d="M5.32244 14.8335L5.93518 15.6238L6.32244 15.3235V14.8335H5.32244ZM4.98423 14.8449L5.54424 14.0164L5.53723 14.0117L4.98423 14.8449ZM2.05957 12.1003L1.26296 12.7048L1.26479 12.7072L2.05957 12.1003ZM0.0899214 7.63526L-0.898475 7.78719L-0.898012 7.79014L0.0899214 7.63526ZM0.795612 3.45737L-0.059651 2.93917L-0.0598095 2.93943L0.795612 3.45737ZM1.88504 2.18816L2.5248 2.95674L2.5274 2.95457L1.88504 2.18816ZM5.22054 0.895028L5.22872 -0.104939L5.22843 -0.104941L5.22054 0.895028ZM8.38586 2.25196L9.07842 1.5306L9.07747 1.52969L8.38586 2.25196ZM9.2303 3.33318L8.36362 3.83205L8.36451 3.83359L9.2303 3.33318ZM9.83193 8.11834L10.8112 8.32119L10.8132 8.31119L9.83193 8.11834ZM5.32244 14.8312L4.77595 13.9938L4.32244 14.2897V14.8312H5.32244ZM4.99724 3.60206L4.9945 2.60206L4.99724 4.60206V3.60206ZM2.51052 6.2225L1.51052 6.2225V6.2225L2.51052 6.2225ZM5.00049 3.60206L5.00186 4.60206L5.00049 2.60206V3.60206ZM4.7097 14.0432C4.82404 13.9546 4.96746 13.9003 5.12136 13.8951L5.18869 15.894C5.46339 15.8847 5.72358 15.7879 5.93518 15.6238L4.7097 14.0432ZM5.12136 13.8951C5.27532 13.8899 5.423 13.9345 5.54422 14.0164L4.42424 15.6734C4.64711 15.824 4.91392 15.9032 5.18869 15.894L5.12136 13.8951ZM5.53723 14.0117C4.5187 13.3357 3.61169 12.4851 2.85434 11.4934L1.26479 12.7072C2.15482 13.8727 3.22444 14.8771 4.43123 15.6781L5.53723 14.0117ZM2.85617 11.4958C1.87967 10.2089 1.28532 8.80378 1.07786 7.48038L-0.898012 7.79014C-0.63502 9.46772 0.103971 11.1775 1.26297 12.7048L2.85617 11.4958ZM1.07831 7.48333C0.87227 6.14289 1.0752 4.92634 1.65103 3.9753L-0.0598095 2.93943C-0.925714 4.36957 -1.16072 6.08109 -0.89847 7.78719L1.07831 7.48333ZM1.65088 3.97556C1.88761 3.58484 2.18345 3.24087 2.5248 2.95674L1.24529 1.41958C0.730704 1.84791 0.290094 2.36193 -0.0596509 2.93917L1.65088 3.97556ZM2.5274 2.95457C3.39013 2.23149 4.32783 1.88802 5.21267 1.895L5.22843 -0.104941C3.79998 -0.116197 2.41356 0.440406 1.24269 1.42175L2.5274 2.95457ZM5.21237 1.89499C6.0555 1.90188 6.91467 2.22775 7.69425 2.97423L9.07747 1.52969C7.95569 0.455533 6.61648 -0.0935989 5.22872 -0.104939L5.21237 1.89499ZM7.69329 2.97332C7.95332 3.22296 8.17936 3.51193 8.36363 3.83205L10.097 2.83431C9.81959 2.35242 9.47688 1.91315 9.07842 1.5306L7.69329 2.97332ZM8.36451 3.83359C8.98694 4.91048 9.1582 6.36097 8.8507 7.92548L10.8132 8.31119C11.1864 6.41216 11.0238 4.43785 10.0961 2.83277L8.36451 3.83359ZM8.85271 7.91549C8.59289 9.16978 8.09651 10.3539 7.39511 11.398L9.05529 12.5133C9.90316 11.2511 10.4995 9.82544 10.8111 8.32118L8.85271 7.91549ZM7.39511 11.398C6.69378 12.442 5.80238 13.324 4.77595 13.9938L5.86893 15.6687C7.12453 14.8493 8.20735 13.7755 9.05529 12.5133L7.39511 11.398ZM4.32244 14.8312V14.8335H6.32244V14.8312H4.32244ZM4.99998 4.60206C5.28406 4.60128 5.56635 4.68883 5.81136 4.86005L6.95697 3.22067C6.38026 2.81766 5.6972 2.60014 4.9945 2.60206L4.99998 4.60206ZM5.81136 4.86005C6.05705 5.03174 6.25603 5.28153 6.37565 5.58337L8.23497 4.84654C7.97518 4.19097 7.53301 3.6232 6.95697 3.22067L5.81136 4.86005ZM6.37565 5.58337C6.49539 5.88553 6.52784 6.22089 6.467 6.5451L8.4327 6.91395C8.5628 6.22062 8.49464 5.50179 8.23497 4.84654L6.37565 5.58337ZM6.467 6.5451C6.4062 6.86914 6.25637 7.16049 6.04365 7.38465L7.49439 8.76136C7.97852 8.2512 8.30257 7.60743 8.4327 6.91395L6.467 6.5451ZM6.04365 7.38465C5.83143 7.60827 5.56703 7.75459 5.2869 7.81346L5.69819 9.77071C6.38568 9.62624 7.00976 9.27205 7.49439 8.76136L6.04365 7.38465ZM5.2869 7.81346C5.0072 7.87223 4.71662 7.84297 4.44968 7.72697L3.65259 9.56127C4.29756 9.84154 5.01026 9.91527 5.69819 9.77071L5.2869 7.81346ZM4.44968 7.72697C4.18206 7.61068 3.94517 7.40994 3.77488 7.14228L2.08743 8.21582C2.46564 8.81032 3.0083 9.2813 3.65259 9.56127L4.44968 7.72697ZM3.77488 7.14228C3.60431 6.87415 3.51052 6.55394 3.51052 6.2225L1.51052 6.2225C1.51052 6.9282 1.70951 7.62179 2.08743 8.21582L3.77488 7.14228ZM3.51052 6.2225C3.51052 5.7775 3.67903 5.36007 3.96454 5.05961L2.51469 3.68195C1.86647 4.36414 1.51052 5.27871 1.51052 6.2225L3.51052 6.2225ZM3.96454 5.05961C4.24845 4.76082 4.62266 4.60258 5.00186 4.60206L4.99912 2.60206C4.05696 2.60335 3.16452 2.99807 2.51469 3.68195L3.96454 5.05961ZM5.00049 2.60206H4.99724V4.60206H5.00049V2.60206Z" fill="#323232" mask="url(#path-1-inside-1_89_538)"/>
</g>
<defs>
<clipPath id="clip0_89_538">
<rect width="10" height="14" fill="white" transform="translate(0 0.89502)"/>
</clipPath>
</defs>
</svg>
