<svg width="39" height="38" viewBox="0 0 39 38" fill="none" xmlns="http://www.w3.org/2000/svg">
<path d="M30.7332 5.06665H7.93324C6.53357 5.06665 5.3999 6.20032 5.3999 7.59998V30.4C5.3999 31.7996 6.53357 32.9333 7.93324 32.9333H30.7332C32.1329 32.9333 33.2666 31.7996 33.2666 30.4V7.59998C33.2666 6.20032 32.1316 5.06665 30.7332 5.06665ZM29.0726 17.067C28.908 17.0822 28.742 17.0924 28.5748 17.0924C26.6812 17.0924 25.0168 16.1196 24.0478 14.6464C24.0478 18.5085 24.0478 22.9038 24.0478 22.9773C24.0478 26.3783 21.2902 29.1346 17.8905 29.1346C14.4908 29.1333 11.7332 26.3758 11.7332 22.976C11.7332 19.575 14.4908 16.8188 17.8905 16.8188C18.0197 16.8188 18.1451 16.8302 18.2705 16.8378V19.8727C18.1438 19.8575 18.021 19.8347 17.8905 19.8347C16.1552 19.8347 14.7479 21.242 14.7479 22.9773C14.7479 24.7126 16.1539 26.1199 17.8905 26.1199C19.6271 26.1199 21.1598 24.7519 21.1598 23.0166C21.1598 22.9469 21.1902 8.86792 21.1902 8.86792H24.0896C24.3619 11.4608 26.4557 13.5077 29.0726 13.6952V17.067Z" fill="black"/>
</svg>
