<svg width="39" height="38" viewBox="0 0 39 38" fill="none" xmlns="http://www.w3.org/2000/svg">
<path d="M19.3333 3.80005C10.9391 3.80005 4.1333 10.6058 4.1333 19C4.1333 21.8516 4.93427 24.5101 6.30049 26.7905L4.26937 34.2L11.8372 32.2135C14.0505 33.4718 16.6055 34.2 19.3333 34.2C27.7275 34.2 34.5333 27.3942 34.5333 19C34.5333 10.6058 27.7275 3.80005 19.3333 3.80005ZM14.1306 11.9097C14.3776 11.9097 14.6314 11.9082 14.8505 11.9196C15.1216 11.9259 15.4166 11.9458 15.6991 12.5702C16.0347 13.3125 16.7656 15.1746 16.8593 15.3633C16.9531 15.5521 17.0195 15.7744 16.889 16.0214C16.7649 16.2747 16.7003 16.4281 16.5179 16.6523C16.3292 16.8701 16.1224 17.1407 15.9514 17.3054C15.7627 17.4941 15.5678 17.7011 15.7856 18.0773C16.0035 18.4535 16.7601 19.6867 17.8786 20.6823C19.3163 21.9667 20.5293 22.3614 20.9067 22.5502C21.2842 22.7389 21.5028 22.7095 21.7207 22.4562C21.9449 22.2092 22.6623 21.3616 22.9156 20.9842C23.1626 20.6067 23.4147 20.672 23.7567 20.7961C24.1038 20.9203 25.9547 21.832 26.3321 22.0208C26.7096 22.2095 26.9571 22.3029 27.0521 22.4562C27.1496 22.6145 27.1497 23.3682 26.8368 24.2473C26.524 25.1251 24.9876 25.974 24.2985 26.0335C23.6031 26.0981 22.9541 26.3461 19.7786 25.0959C15.9482 23.5873 13.5326 19.6641 13.3438 19.4107C13.1551 19.1637 11.81 17.371 11.81 15.5217C11.81 13.666 12.7829 12.7572 13.1237 12.3797C13.4707 12.0023 13.8772 11.9097 14.1306 11.9097Z" fill="black"/>
</svg>
