<svg width="34" height="28" viewBox="0 0 34 28" fill="none" xmlns="http://www.w3.org/2000/svg">
<path d="M16.7999 0C11.4977 0 4.61567 1.32852 4.61567 1.32852L4.59836 1.34831C2.18343 1.73453 0.333252 3.80966 0.333252 6.33333V13.9333V13.9358V21.5333V21.5358C0.335609 22.7411 0.767554 23.906 1.55153 24.8215C2.3355 25.737 3.42016 26.343 4.61073 26.5307L4.61567 26.5382C4.61567 26.5382 11.4977 27.8691 16.7999 27.8691C22.1022 27.8691 28.9842 26.5382 28.9842 26.5382L28.9866 26.5357C30.1785 26.3483 31.2644 25.7418 32.049 24.8253C32.8335 23.9087 33.2653 22.7423 33.2666 21.5358V21.5333V13.9358V13.9333V6.33333C33.2648 5.12763 32.8331 3.96207 32.0491 3.04609C31.2651 2.13011 30.1801 1.52374 28.9891 1.33594L28.9842 1.32852C28.9842 1.32852 22.1022 0 16.7999 0ZM12.9999 8.10469L23.1333 13.9333L12.9999 19.762V8.10469Z" fill="black"/>
</svg>
